<?xml version="1.0" standalone="no"?>
<!DOCTYPE svg PUBLIC "-//W3C//DTD SVG 20010904//EN"
 "http://www.w3.org/TR/2001/REC-SVG-20010904/DTD/svg10.dtd">
<svg version="1.0" xmlns="http://www.w3.org/2000/svg"
 width="512.000000pt" height="512.000000pt" viewBox="0 0 512.000000 512.000000"
 preserveAspectRatio="xMidYMid meet">
<metadata>
Created by potrace 1.14, written by Peter Selinger 2001-2017
</metadata>
<g transform="translate(0.000000,512.000000) scale(0.100000,-0.100000)"
fill="#000000" stroke="none">
<path d="M2464 5114 c-10 -3 -112 -11 -229 -18 -38 -2 -82 -9 -97 -15 -16 -6
-28 -9 -28 -6 0 2 -18 -2 -40 -10 -22 -8 -40 -12 -40 -10 0 2 -17 -3 -37 -11
-138 -55 -348 -163 -417 -213 -78 -57 -190 -155 -236 -205 -19 -22 -45 -49
-56 -61 -42 -42 -161 -212 -212 -300 -64 -113 -166 -355 -178 -420 -2 -17 -13
-57 -23 -90 -21 -68 -46 -178 -56 -245 -4 -24 -8 -47 -10 -50 -2 -3 -6 -37
-10 -75 -4 -39 -9 -73 -11 -76 -5 -9 -28 -355 -26 -404 2 -85 14 -298 17 -325
4 -36 22 -156 30 -200 2 -14 14 -56 25 -95 12 -38 30 -104 41 -145 30 -111
117 -366 150 -438 16 -34 29 -65 29 -68 0 -19 156 -321 214 -414 79 -125 242
-363 298 -435 58 -74 82 -104 101 -125 13 -14 41 -47 63 -75 21 -27 48 -59 59
-71 33 -34 88 -99 119 -140 16 -22 79 -88 140 -147 95 -94 123 -115 201 -152
140 -68 193 -78 375 -72 121 4 168 10 213 26 89 31 186 86 252 142 110 93 135
118 175 176 57 83 71 101 98 131 13 15 41 50 62 77 21 28 47 59 57 70 24 25
239 351 278 420 63 115 169 302 184 325 8 14 31 54 49 90 19 36 38 70 42 75 7
10 38 83 65 155 7 19 24 62 38 95 45 106 145 418 157 490 7 39 14 79 16 90 9
51 37 339 40 415 7 202 -4 559 -20 631 -8 32 -15 74 -22 129 -3 25 -11 65 -18
90 -8 25 -14 50 -15 55 -25 143 -125 423 -199 554 -20 36 -46 82 -57 102 -21
39 -32 55 -106 153 -92 123 -193 227 -289 301 -36 27 -67 52 -70 55 -11 11
-49 32 -140 76 -165 80 -243 104 -445 137 -16 3 -52 10 -80 16 -76 16 -104 20
-175 26 -78 7 -233 12 -246 9z"/>
</g>
</svg>
